<svg width="262" height="83" viewBox="0 0 262 83" fill="none" xmlns="http://www.w3.org/2000/svg">
<path d="M54.472 10.96L36.168 10.576C17.48 10.576 8.136 14.672 8.136 22.864C8.136 24.9973 8.904 26.7467 10.44 28.112C12.0613 29.392 14.4507 30.032 17.608 30.032C20.7653 30.032 24.904 28.5813 30.024 25.68L31.944 29.008C29.2987 31.824 26.312 34.0427 22.984 35.664C19.656 37.2853 16.328 38.096 13 38.096C9.672 38.096 6.81333 36.9867 4.424 34.768C2.03467 32.5493 0.84 29.776 0.84 26.448C0.84 19.7067 4.46667 13.8187 11.72 8.784C19.0587 3.74933 28.9573 1.23199 41.416 1.23199C42.44 1.23199 46.1093 1.40266 52.424 1.744C58.7387 2.08533 63.7307 2.256 67.4 2.256C71.0693 2.256 74.44 1.70133 77.512 0.591995C78.7067 0.250661 79.432 0.0799942 79.688 0.0799942C80.8827 0.0799942 81.48 0.847994 81.48 2.384C81.48 4.60266 79.5173 6.608 75.592 8.39999C71.752 10.192 67.3147 11.088 62.28 11.088C56.648 16.5493 51.6987 26.1067 47.432 39.76C43.2507 53.328 38.216 63.696 32.328 70.864C26.5253 77.9467 19.6133 81.488 11.592 81.488C8.43467 81.488 5.448 80.464 2.632 78.416L5.576 73.552C6.6 74.064 7.752 74.5333 9.032 74.96L10.824 75.216C11.2507 75.3013 11.8907 75.344 12.744 75.344C17.0107 75.344 20.808 73.296 24.136 69.2C27.5493 65.104 31.0907 57.3813 34.76 46.032C38.5147 34.5973 41.416 27.0453 43.464 23.376C45.5973 19.6213 49.2667 15.4827 54.472 10.96Z" fill="#21B813"/>
<path d="M77.872 82.448C76.3787 82.448 75.0773 82.0853 73.968 81.36C72.9013 80.592 71.9627 79.6107 71.152 78.416C70.384 77.2213 69.7013 75.92 69.104 74.512C68.5493 73.0613 68.016 71.6747 67.504 70.352C66.736 68.2187 66.032 66.3627 65.392 64.784C64.752 63.1627 64.048 61.7973 63.28 60.688C62.4693 63.9307 61.808 67.0453 61.296 70.032C60.8267 73.0187 60.528 76.3467 60.4 80.016C59.632 80.7413 58.7573 81.296 57.776 81.68C56.8373 82.064 55.8773 82.256 54.896 82.256C53.4027 82.256 52.08 81.744 50.928 80.72C49.776 79.6533 49.2 77.8827 49.2 75.408C49.2 73.7013 49.456 71.7813 49.968 69.648C50.48 67.5147 51.0987 65.3173 51.824 63.056C52.592 60.7947 53.36 58.5973 54.128 56.464C54.896 54.3307 55.536 52.4107 56.048 50.704C56.56 48.9547 56.816 47.568 56.816 46.544C56.816 45.4773 56.4533 44.944 55.728 44.944C54.9173 44.944 53.936 45.5627 52.784 46.8C51.632 47.9947 50.4587 49.68 49.264 51.856L48.88 51.728C48.88 49.168 49.4347 46.8853 50.544 44.88C51.6533 42.8747 53.1467 41.1893 55.024 39.824C56.944 38.416 59.1413 37.3493 61.616 36.624C64.1333 35.8987 66.7573 35.536 69.488 35.536C73.1147 35.536 76.0587 36.112 78.32 37.264C80.5813 38.3733 82.2453 39.824 83.312 41.616C84.4213 43.3653 84.976 45.2427 84.976 47.248C84.976 49.296 84.4427 51.3013 83.376 53.264C82.352 55.2267 80.88 56.8693 78.96 58.192C77.0827 59.472 74.8427 60.2187 72.24 60.432C73.136 61.1147 73.904 61.9893 74.544 63.056C75.184 64.08 75.8453 65.2533 76.528 66.576C77.1253 67.7707 77.8293 68.9227 78.64 70.032C79.4507 71.0987 80.56 71.632 81.968 71.632C82.6933 71.632 83.2907 71.4613 83.76 71.12C84.2293 70.736 84.6347 70.1173 84.976 69.264L85.36 69.456C85.5733 70.096 85.7013 70.7147 85.744 71.312C85.8293 71.9093 85.872 72.464 85.872 72.976C85.872 75.664 85.1253 77.9253 83.632 79.76C82.1387 81.552 80.2187 82.448 77.872 82.448ZM66.48 54.8C68.016 54.8 69.3387 54.4587 70.448 53.776C71.6 53.0507 72.4747 52.176 73.072 51.152C73.712 50.0853 74.032 49.0187 74.032 47.952C74.032 46.6293 73.52 45.4773 72.496 44.496C71.5147 43.472 69.8933 42.96 67.632 42.96C67.2907 42.96 66.928 42.9813 66.544 43.024C66.2027 43.024 65.8613 43.0453 65.52 43.088C65.5627 43.3867 65.584 43.6853 65.584 43.984C65.584 44.24 65.584 44.368 65.584 44.368C65.584 46.3307 65.4987 48.2293 65.328 50.064C65.2 51.8987 65.008 53.4347 64.752 54.672C65.0507 54.7147 65.328 54.7573 65.584 54.8C65.8827 54.8 66.1813 54.8 66.48 54.8ZM95.284 82.32C94.0893 82.32 93.0227 81.8293 92.084 80.848C91.188 79.824 90.74 77.9467 90.74 75.216C90.74 74.7467 90.74 74.3413 90.74 74C90.7827 73.616 90.804 73.3387 90.804 73.168C90.9747 71.4613 91.2093 69.3493 91.508 66.832C91.8493 64.272 92.2333 61.6053 92.66 58.832C93.0867 56.016 93.5133 53.3067 93.94 50.704C94.4093 48.1013 94.836 45.84 95.22 43.92C95.604 41.9573 95.924 40.6133 96.18 39.888C96.6493 38.608 97.4813 37.6053 98.676 36.88C99.9133 36.112 101.172 35.728 102.452 35.728C103.561 35.728 104.564 36.048 105.46 36.688C106.399 37.328 107.039 38.416 107.38 39.952C107.124 40.8053 106.719 42.32 106.164 44.496C105.609 46.6293 105.012 49.2533 104.372 52.368C103.732 55.4827 103.113 58.9173 102.516 62.672C101.961 66.4267 101.513 70.352 101.172 74.448C101.129 75.1733 101.065 76.0267 100.98 77.008C100.895 77.9467 100.831 78.9067 100.788 79.888C100.276 80.4427 99.508 80.9973 98.484 81.552C97.46 82.064 96.3933 82.32 95.284 82.32ZM117.455 82.256C115.877 82.256 114.426 81.616 113.103 80.336C111.823 79.056 111.183 77.0293 111.183 74.256C111.183 71.4827 111.439 68.816 111.951 66.256C112.506 63.6533 113.125 61.1573 113.807 58.768C114.533 56.3787 115.152 54.1173 115.663 51.984C116.218 49.808 116.496 47.76 116.496 45.84C115.856 45.584 115.258 45.456 114.703 45.456C113.935 45.456 113.295 45.6907 112.783 46.16C112.271 46.6293 111.866 47.2693 111.567 48.08L110.927 47.888C110.97 44.9013 111.397 42.5333 112.207 40.784C113.061 38.992 114.149 37.712 115.471 36.944C116.794 36.176 118.159 35.792 119.568 35.792C121.701 35.792 123.6 36.496 125.264 37.904C126.97 39.2693 128.485 41.1467 129.808 43.536C131.173 45.9253 132.346 48.6347 133.328 51.664C134.352 54.6507 135.226 57.7867 135.952 61.072C136.677 64.3147 137.253 67.5147 137.68 70.672C137.936 68.9653 138.192 66.8747 138.448 64.4C138.746 61.9253 139.002 59.3227 139.216 56.592C139.429 53.8613 139.536 51.2587 139.536 48.784C139.536 46.992 139.472 45.3707 139.344 43.92C139.216 42.4267 139.002 41.1467 138.704 40.08V39.568C139.813 38.3307 140.922 37.392 142.032 36.752C143.184 36.112 144.25 35.792 145.232 35.792C146.682 35.792 147.877 36.432 148.816 37.712C149.797 38.9493 150.288 40.72 150.288 43.024C150.288 44.7307 150.053 46.8213 149.583 49.296C149.114 51.728 148.56 54.3307 147.92 57.104C147.28 59.8773 146.704 62.608 146.192 65.296C145.722 67.9413 145.466 70.3307 145.424 72.464C145.424 73.0613 145.466 73.7013 145.552 74.384C145.637 75.0667 146.085 75.408 146.896 75.408C146.938 75.5787 146.96 75.7067 146.96 75.792C146.96 75.8773 146.96 75.9627 146.96 76.048C146.917 77.6693 146.256 79.12 144.976 80.4C143.696 81.6373 141.989 82.256 139.856 82.256C138.192 82.256 136.784 81.8293 135.632 80.976C134.48 80.1227 133.52 78.992 132.752 77.584C131.984 76.1333 131.322 74.512 130.767 72.72C130.256 70.8853 129.765 69.008 129.295 67.088C128.442 63.76 127.546 60.6027 126.608 57.616C125.712 54.5867 124.496 51.8133 122.96 49.296C123.045 51.0027 122.981 52.88 122.767 54.928C122.554 56.9333 122.32 58.9813 122.064 61.072C121.85 63.12 121.744 65.104 121.744 67.024C121.744 68.7307 121.893 70.3093 122.192 71.76C122.49 73.168 123.024 74.4267 123.792 75.536C123.792 77.6267 123.13 79.2693 121.807 80.464C120.485 81.6587 119.034 82.256 117.455 82.256ZM161.252 82.32C160.057 82.32 158.99 81.8293 158.052 80.848C157.156 79.824 156.708 77.9467 156.708 75.216C156.708 74.7467 156.708 74.3413 156.708 74C156.75 73.616 156.772 73.3387 156.772 73.168C156.942 71.4613 157.177 69.3493 157.476 66.832C157.817 64.272 158.201 61.6053 158.628 58.832C159.054 56.016 159.481 53.3067 159.908 50.704C160.377 48.1013 160.804 45.84 161.188 43.92C161.572 41.9573 161.892 40.6133 162.148 39.888C162.617 38.608 163.449 37.6053 164.644 36.88C165.881 36.112 167.14 35.728 168.42 35.728C169.529 35.728 170.532 36.048 171.428 36.688C172.366 37.328 173.006 38.416 173.348 39.952C173.092 40.8053 172.686 42.32 172.132 44.496C171.577 46.6293 170.98 49.2533 170.34 52.368C169.7 55.4827 169.081 58.9173 168.484 62.672C167.929 66.4267 167.481 70.352 167.14 74.448C167.097 75.1733 167.033 76.0267 166.948 77.008C166.862 77.9467 166.798 78.9067 166.756 79.888C166.244 80.4427 165.476 80.9973 164.452 81.552C163.428 82.064 162.361 82.32 161.252 82.32ZM192.947 82.256C191.624 82.256 190.451 81.9147 189.427 81.232C188.446 80.5493 187.976 79.5253 188.019 78.16C188.104 75.7707 188.275 73.1253 188.531 70.224C188.83 67.3227 189.171 64.3787 189.555 61.392C189.939 58.3627 190.323 55.4613 190.707 52.688C191.134 49.9147 191.518 47.44 191.859 45.264C191.091 45.1787 190.344 45.1147 189.619 45.072C188.894 45.0293 188.232 45.008 187.635 45.008C185.843 45.008 184.222 45.1787 182.771 45.52C181.363 45.8613 180.168 46.4587 179.187 47.312C179.187 44.624 179.4 42.448 179.827 40.784C180.296 39.0773 181.128 37.84 182.323 37.072C183.56 36.304 185.352 35.92 187.699 35.92C189.406 35.92 191.304 36.0693 193.395 36.368C195.528 36.624 197.683 36.9013 199.859 37.2C202.035 37.4987 204.062 37.648 205.939 37.648C207.475 37.648 208.84 37.4987 210.035 37.2C211.272 36.9013 212.211 36.368 212.851 35.6C213.79 35.8987 214.515 36.56 215.027 37.584C215.539 38.5653 215.795 39.6533 215.795 40.848C215.795 41.9147 215.56 42.96 215.091 43.984C214.622 44.9653 213.875 45.7973 212.851 46.48C211.827 47.12 210.44 47.44 208.691 47.44C207.88 47.44 206.878 47.376 205.683 47.248C204.531 47.0773 203.294 46.9067 201.971 46.736C201.502 49.296 201.011 52.368 200.499 55.952C200.03 59.4933 199.624 63.312 199.283 67.408C198.984 71.504 198.792 75.664 198.707 79.888C197.939 80.6987 197.022 81.296 195.955 81.68C194.931 82.064 193.928 82.256 192.947 82.256ZM235.164 82.256C233.969 82.256 232.881 82.0427 231.9 81.616C230.918 81.1893 230.193 80.656 229.724 80.016C230.406 77.7547 230.918 75.3013 231.26 72.656C231.644 70.0107 231.836 67.3867 231.836 64.784C231.836 61.5413 231.537 58.512 230.94 55.696C230.342 52.8373 229.425 50.5333 228.188 48.784C226.993 47.0347 225.436 46.16 223.516 46.16C222.065 46.16 220.422 46.7573 218.588 47.952L217.948 47.696C218.161 44.0267 219.078 41.1467 220.7 39.056C222.321 36.9653 224.369 35.92 226.844 35.92C228.636 35.92 230.257 36.432 231.708 37.456C233.201 38.48 234.502 39.8453 235.612 41.552C236.764 43.2587 237.745 45.1787 238.556 47.312C239.409 49.4453 240.092 51.6213 240.604 53.84C241.542 49.4453 242.758 45.9253 244.252 43.28C245.745 40.592 247.345 38.6507 249.052 37.456C250.758 36.2187 252.401 35.6 253.98 35.6C255.985 35.6 257.692 36.4107 259.1 38.032C260.55 39.6533 261.276 41.744 261.276 44.304C261.276 45.712 261.02 47.2267 260.508 48.848C259.27 48.1653 257.948 47.824 256.54 47.824C254.705 47.824 252.87 48.3787 251.036 49.488C249.201 50.5547 247.516 52.0907 245.98 54.096C244.486 56.0587 243.313 58.384 242.46 61.072C242.588 63.2907 242.652 65.2107 242.652 66.832C242.652 69.0507 242.524 71.1413 242.268 73.104C242.012 75.024 241.542 77.2853 240.86 79.888C240.049 80.6987 239.132 81.296 238.108 81.68C237.126 82.064 236.145 82.256 235.164 82.256Z" fill="#FF0202"/>
</svg>
