<svg width="274" height="151" viewBox="0 0 274 151" fill="none" xmlns="http://www.w3.org/2000/svg">
<g clip-path="url(#clip0_117_9)">
<path d="M62.9545 39.96L44.6505 39.576C25.9625 39.576 16.6185 43.672 16.6185 51.864C16.6185 53.9973 17.3865 55.7467 18.9225 57.112C20.5438 58.392 22.9332 59.032 26.0905 59.032C29.2478 59.032 33.3865 57.5813 38.5065 54.68L40.4265 58.008C37.7812 60.824 34.7945 63.0427 31.4665 64.664C28.1385 66.2853 24.8105 67.096 21.4825 67.096C18.1545 67.096 15.2958 65.9867 12.9065 63.768C10.5172 61.5493 9.3225 58.776 9.3225 55.448C9.3225 48.7067 12.9492 42.8187 20.2025 37.784C27.5412 32.7493 37.4398 30.232 49.8985 30.232C50.9225 30.232 54.5918 30.4027 60.9065 30.744C67.2212 31.0853 72.2132 31.256 75.8825 31.256C79.5518 31.256 82.9225 30.7013 85.9945 29.592C87.1892 29.2507 87.9145 29.08 88.1705 29.08C89.3652 29.08 89.9625 29.848 89.9625 31.384C89.9625 33.6027 87.9998 35.608 84.0745 37.4C80.2345 39.192 75.7972 40.088 70.7625 40.088C65.1305 45.5493 60.1812 55.1067 55.9145 68.76C51.7332 82.328 46.6985 92.696 40.8105 99.864C35.0078 106.947 28.0958 110.488 20.0745 110.488C16.9172 110.488 13.9305 109.464 11.1145 107.416L14.0585 102.552C15.0825 103.064 16.2345 103.533 17.5145 103.96L19.3065 104.216C19.7332 104.301 20.3732 104.344 21.2265 104.344C25.4932 104.344 29.2905 102.296 32.6185 98.2C36.0318 94.104 39.5732 86.3813 43.2425 75.032C46.9972 63.5973 49.8985 56.0453 51.9465 52.376C54.0798 48.6213 57.7492 44.4827 62.9545 39.96Z" fill="#21B813"/>
<path d="M86.3545 111.448C84.8612 111.448 83.5598 111.085 82.4505 110.36C81.3838 109.592 80.4452 108.611 79.6345 107.416C78.8665 106.221 78.1838 104.92 77.5865 103.512C77.0318 102.061 76.4985 100.675 75.9865 99.352C75.2185 97.2187 74.5145 95.3627 73.8745 93.784C73.2345 92.1627 72.5305 90.7973 71.7625 89.688C70.9518 92.9307 70.2905 96.0453 69.7785 99.032C69.3092 102.019 69.0105 105.347 68.8825 109.016C68.1145 109.741 67.2398 110.296 66.2585 110.68C65.3198 111.064 64.3598 111.256 63.3785 111.256C61.8852 111.256 60.5625 110.744 59.4105 109.72C58.2585 108.653 57.6825 106.883 57.6825 104.408C57.6825 102.701 57.9385 100.781 58.4505 98.648C58.9625 96.5147 59.5812 94.3173 60.3065 92.056C61.0745 89.7947 61.8425 87.5973 62.6105 85.464C63.3785 83.3307 64.0185 81.4107 64.5305 79.704C65.0425 77.9547 65.2985 76.568 65.2985 75.544C65.2985 74.4773 64.9358 73.944 64.2105 73.944C63.3998 73.944 62.4185 74.5627 61.2665 75.8C60.1145 76.9947 58.9412 78.68 57.7465 80.856L57.3625 80.728C57.3625 78.168 57.9172 75.8853 59.0265 73.88C60.1358 71.8747 61.6292 70.1893 63.5065 68.824C65.4265 67.416 67.6238 66.3493 70.0985 65.624C72.6158 64.8987 75.2398 64.536 77.9705 64.536C81.5972 64.536 84.5412 65.112 86.8025 66.264C89.0638 67.3733 90.7278 68.824 91.7945 70.616C92.9038 72.3653 93.4585 74.2427 93.4585 76.248C93.4585 78.296 92.9252 80.3013 91.8585 82.264C90.8345 84.2267 89.3625 85.8693 87.4425 87.192C85.5652 88.472 83.3252 89.2187 80.7225 89.432C81.6185 90.1147 82.3865 90.9893 83.0265 92.056C83.6665 93.08 84.3278 94.2533 85.0105 95.576C85.6078 96.7707 86.3118 97.9227 87.1225 99.032C87.9332 100.099 89.0425 100.632 90.4505 100.632C91.1758 100.632 91.7732 100.461 92.2425 100.12C92.7118 99.736 93.1172 99.1173 93.4585 98.264L93.8425 98.456C94.0558 99.096 94.1838 99.7147 94.2265 100.312C94.3118 100.909 94.3545 101.464 94.3545 101.976C94.3545 104.664 93.6078 106.925 92.1145 108.76C90.6212 110.552 88.7012 111.448 86.3545 111.448ZM74.9625 83.8C76.4985 83.8 77.8212 83.4587 78.9305 82.776C80.0825 82.0507 80.9572 81.176 81.5545 80.152C82.1945 79.0853 82.5145 78.0187 82.5145 76.952C82.5145 75.6293 82.0025 74.4773 80.9785 73.496C79.9972 72.472 78.3758 71.96 76.1145 71.96C75.7732 71.96 75.4105 71.9813 75.0265 72.024C74.6852 72.024 74.3438 72.0453 74.0025 72.088C74.0452 72.3867 74.0665 72.6853 74.0665 72.984C74.0665 73.24 74.0665 73.368 74.0665 73.368C74.0665 75.3307 73.9812 77.2293 73.8105 79.064C73.6825 80.8987 73.4905 82.4347 73.2345 83.672C73.5332 83.7147 73.8105 83.7573 74.0665 83.8C74.3652 83.8 74.6638 83.8 74.9625 83.8ZM103.766 111.32C102.572 111.32 101.505 110.829 100.566 109.848C99.6705 108.824 99.2225 106.947 99.2225 104.216C99.2225 103.747 99.2225 103.341 99.2225 103C99.2652 102.616 99.2865 102.339 99.2865 102.168C99.4572 100.461 99.6918 98.3493 99.9905 95.832C100.332 93.272 100.716 90.6053 101.142 87.832C101.569 85.016 101.996 82.3067 102.422 79.704C102.892 77.1013 103.318 74.84 103.702 72.92C104.086 70.9573 104.406 69.6133 104.662 68.888C105.132 67.608 105.964 66.6053 107.158 65.88C108.396 65.112 109.654 64.728 110.934 64.728C112.044 64.728 113.046 65.048 113.942 65.688C114.881 66.328 115.521 67.416 115.862 68.952C115.606 69.8053 115.201 71.32 114.646 73.496C114.092 75.6293 113.494 78.2533 112.854 81.368C112.214 84.4827 111.596 87.9173 110.998 91.672C110.444 95.4267 109.996 99.352 109.654 103.448C109.612 104.173 109.548 105.027 109.462 106.008C109.377 106.947 109.313 107.907 109.27 108.888C108.758 109.443 107.99 109.997 106.966 110.552C105.942 111.064 104.876 111.32 103.766 111.32ZM125.938 111.256C124.359 111.256 122.909 110.616 121.586 109.336C120.306 108.056 119.666 106.029 119.666 103.256C119.666 100.483 119.922 97.816 120.434 95.256C120.989 92.6533 121.607 90.1573 122.29 87.768C123.015 85.3787 123.634 83.1173 124.146 80.984C124.701 78.808 124.978 76.76 124.978 74.84C124.338 74.584 123.741 74.456 123.186 74.456C122.418 74.456 121.778 74.6907 121.266 75.16C120.754 75.6293 120.349 76.2693 120.05 77.08L119.41 76.888C119.453 73.9013 119.879 71.5333 120.69 69.784C121.543 67.992 122.631 66.712 123.954 65.944C125.277 65.176 126.642 64.792 128.05 64.792C130.183 64.792 132.082 65.496 133.746 66.904C135.453 68.2693 136.967 70.1467 138.29 72.536C139.655 74.9253 140.829 77.6347 141.81 80.664C142.834 83.6507 143.709 86.7867 144.434 90.072C145.159 93.3147 145.735 96.5147 146.162 99.672C146.418 97.9653 146.674 95.8747 146.93 93.4C147.229 90.9253 147.485 88.3227 147.698 85.592C147.911 82.8613 148.018 80.2587 148.018 77.784C148.018 75.992 147.954 74.3707 147.826 72.92C147.698 71.4267 147.485 70.1467 147.186 69.08V68.568C148.295 67.3307 149.405 66.392 150.514 65.752C151.666 65.112 152.733 64.792 153.714 64.792C155.165 64.792 156.359 65.432 157.298 66.712C158.279 67.9493 158.77 69.72 158.77 72.024C158.77 73.7307 158.535 75.8213 158.066 78.296C157.597 80.728 157.042 83.3307 156.402 86.104C155.762 88.8773 155.186 91.608 154.674 94.296C154.205 96.9413 153.949 99.3307 153.906 101.464C153.906 102.061 153.949 102.701 154.034 103.384C154.119 104.067 154.567 104.408 155.378 104.408C155.421 104.579 155.442 104.707 155.442 104.792C155.442 104.877 155.442 104.963 155.442 105.048C155.399 106.669 154.738 108.12 153.458 109.4C152.178 110.637 150.471 111.256 148.338 111.256C146.674 111.256 145.266 110.829 144.114 109.976C142.962 109.123 142.002 107.992 141.234 106.584C140.466 105.133 139.805 103.512 139.25 101.72C138.738 99.8853 138.247 98.008 137.778 96.088C136.925 92.76 136.029 89.6027 135.09 86.616C134.194 83.5867 132.978 80.8133 131.442 78.296C131.527 80.0027 131.463 81.88 131.25 83.928C131.037 85.9333 130.802 87.9813 130.546 90.072C130.333 92.12 130.226 94.104 130.226 96.024C130.226 97.7307 130.375 99.3093 130.674 100.76C130.973 102.168 131.506 103.427 132.274 104.536C132.274 106.627 131.613 108.269 130.29 109.464C128.967 110.659 127.517 111.256 125.938 111.256ZM169.734 111.32C168.539 111.32 167.473 110.829 166.534 109.848C165.638 108.824 165.19 106.947 165.19 104.216C165.19 103.747 165.19 103.341 165.19 103C165.233 102.616 165.254 102.339 165.254 102.168C165.425 100.461 165.659 98.3493 165.958 95.832C166.299 93.272 166.683 90.6053 167.11 87.832C167.537 85.016 167.963 82.3067 168.39 79.704C168.859 77.1013 169.286 74.84 169.67 72.92C170.054 70.9573 170.374 69.6133 170.63 68.888C171.099 67.608 171.931 66.6053 173.126 65.88C174.363 65.112 175.622 64.728 176.902 64.728C178.011 64.728 179.014 65.048 179.91 65.688C180.849 66.328 181.489 67.416 181.83 68.952C181.574 69.8053 181.169 71.32 180.614 73.496C180.059 75.6293 179.462 78.2533 178.822 81.368C178.182 84.4827 177.563 87.9173 176.966 91.672C176.411 95.4267 175.963 99.352 175.622 103.448C175.579 104.173 175.515 105.027 175.43 106.008C175.345 106.947 175.281 107.907 175.238 108.888C174.726 109.443 173.958 109.997 172.934 110.552C171.91 111.064 170.843 111.32 169.734 111.32ZM201.43 111.256C200.107 111.256 198.934 110.915 197.91 110.232C196.928 109.549 196.459 108.525 196.502 107.16C196.587 104.771 196.758 102.125 197.014 99.224C197.312 96.3227 197.654 93.3787 198.038 90.392C198.422 87.3627 198.806 84.4613 199.19 81.688C199.616 78.9147 200 76.44 200.342 74.264C199.574 74.1787 198.827 74.1147 198.102 74.072C197.376 74.0293 196.715 74.008 196.118 74.008C194.326 74.008 192.704 74.1787 191.254 74.52C189.846 74.8613 188.651 75.4587 187.67 76.312C187.67 73.624 187.883 71.448 188.31 69.784C188.779 68.0773 189.611 66.84 190.806 66.072C192.043 65.304 193.835 64.92 196.182 64.92C197.888 64.92 199.787 65.0693 201.878 65.368C204.011 65.624 206.166 65.9013 208.342 66.2C210.518 66.4987 212.544 66.648 214.422 66.648C215.958 66.648 217.323 66.4987 218.518 66.2C219.755 65.9013 220.694 65.368 221.334 64.6C222.272 64.8987 222.998 65.56 223.51 66.584C224.022 67.5653 224.278 68.6533 224.278 69.848C224.278 70.9147 224.043 71.96 223.574 72.984C223.104 73.9653 222.358 74.7973 221.334 75.48C220.31 76.12 218.923 76.44 217.174 76.44C216.363 76.44 215.36 76.376 214.166 76.248C213.014 76.0773 211.776 75.9067 210.454 75.736C209.984 78.296 209.494 81.368 208.982 84.952C208.512 88.4933 208.107 92.312 207.766 96.408C207.467 100.504 207.275 104.664 207.19 108.888C206.422 109.699 205.504 110.296 204.438 110.68C203.414 111.064 202.411 111.256 201.43 111.256ZM243.646 111.256C242.451 111.256 241.363 111.043 240.382 110.616C239.401 110.189 238.675 109.656 238.206 109.016C238.889 106.755 239.401 104.301 239.742 101.656C240.126 99.0107 240.318 96.3867 240.318 93.784C240.318 90.5413 240.019 87.512 239.422 84.696C238.825 81.8373 237.907 79.5333 236.67 77.784C235.475 76.0347 233.918 75.16 231.998 75.16C230.547 75.16 228.905 75.7573 227.07 76.952L226.43 76.696C226.643 73.0267 227.561 70.1467 229.182 68.056C230.803 65.9653 232.851 64.92 235.326 64.92C237.118 64.92 238.739 65.432 240.19 66.456C241.683 67.48 242.985 68.8453 244.094 70.552C245.246 72.2587 246.227 74.1787 247.038 76.312C247.891 78.4453 248.574 80.6213 249.086 82.84C250.025 78.4453 251.241 74.9253 252.734 72.28C254.227 69.592 255.827 67.6507 257.534 66.456C259.241 65.2187 260.883 64.6 262.462 64.6C264.467 64.6 266.174 65.4107 267.582 67.032C269.033 68.6533 269.758 70.744 269.758 73.304C269.758 74.712 269.502 76.2267 268.99 77.848C267.753 77.1653 266.43 76.824 265.022 76.824C263.187 76.824 261.353 77.3787 259.518 78.488C257.683 79.5547 255.998 81.0907 254.462 83.096C252.969 85.0587 251.795 87.384 250.942 90.072C251.07 92.2907 251.134 94.2107 251.134 95.832C251.134 98.0507 251.006 100.141 250.75 102.104C250.494 104.024 250.025 106.285 249.342 108.888C248.531 109.699 247.614 110.296 246.59 110.68C245.609 111.064 244.627 111.256 243.646 111.256Z" fill="#FF0202"/>
<path d="M19.0156 144.36C17.3623 144.36 15.989 144.133 14.8956 143.68C13.8023 143.227 12.989 142.653 12.4556 141.96C11.9223 141.24 11.6556 140.52 11.6556 139.8C11.6556 138.787 12.109 137.893 13.0156 137.12C13.9223 136.32 15.149 135.92 16.6956 135.92C16.6956 137.28 16.869 138.373 17.2156 139.2C17.5623 140 18.0023 140.573 18.5356 140.92C19.0956 141.267 19.629 141.44 20.1356 141.44C20.749 141.44 21.2556 141.267 21.6556 140.92C22.0823 140.547 22.2956 140.093 22.2956 139.56C22.2956 138.813 21.909 138.16 21.1356 137.6C20.3623 137.04 19.3623 136.413 18.1356 135.72C17.5223 135.347 16.8556 134.92 16.1356 134.44C15.4156 133.933 14.8023 133.333 14.2956 132.64C13.789 131.92 13.5356 131.067 13.5356 130.08C13.5356 129.04 13.829 128.12 14.4156 127.32C15.029 126.52 15.829 125.853 16.8156 125.32C17.8023 124.76 18.869 124.347 20.0156 124.08C21.1623 123.787 22.2823 123.64 23.3756 123.64C25.429 123.64 26.9756 124.053 28.0156 124.88C29.0556 125.707 29.5756 126.587 29.5756 127.52C29.5756 128.32 29.1756 129.04 28.3756 129.68C27.5756 130.32 26.349 130.64 24.6956 130.64C24.7223 129.28 24.4423 128.293 23.8556 127.68C23.269 127.04 22.6423 126.72 21.9756 126.72C21.4956 126.72 21.0956 126.867 20.7756 127.16C20.4556 127.453 20.2956 127.88 20.2956 128.44C20.2956 129.08 20.4956 129.64 20.8956 130.12C21.3223 130.573 21.8423 130.987 22.4556 131.36C23.0956 131.707 23.749 132.04 24.4156 132.36C25.3223 132.787 26.1756 133.24 26.9756 133.72C27.7756 134.2 28.429 134.747 28.9356 135.36C29.4423 135.973 29.6956 136.72 29.6956 137.6C29.6956 138.8 29.2023 139.92 28.2156 140.96C27.2556 141.973 25.9623 142.8 24.3356 143.44C22.709 144.053 20.9356 144.36 19.0156 144.36ZM38.1403 144.16C36.9403 144.16 35.927 143.667 35.1003 142.68C34.3003 141.693 33.9003 140.373 33.9003 138.72C33.9003 137.813 34.007 136.84 34.2203 135.8C34.4336 134.76 34.647 133.773 34.8603 132.84C35.047 132.147 35.1936 131.507 35.3003 130.92C35.4336 130.307 35.5003 129.813 35.5003 129.44C35.5003 128.96 35.3936 128.613 35.1803 128.4C34.9936 128.187 34.767 128.08 34.5003 128.08C34.2336 128.08 33.967 128.173 33.7003 128.36C33.4336 128.52 33.2203 128.773 33.0603 129.12L32.7403 129C32.7403 127.907 33.007 126.973 33.5403 126.2C34.0736 125.427 34.7536 124.84 35.5803 124.44C36.407 124.04 37.247 123.84 38.1003 123.84C38.7936 123.84 39.4603 123.987 40.1003 124.28C40.7403 124.547 41.2603 124.973 41.6603 125.56C42.087 126.147 42.3003 126.88 42.3003 127.76C42.3003 128.293 42.2203 128.933 42.0603 129.68C41.927 130.427 41.767 131.2 41.5803 132C41.3936 132.827 41.207 133.667 41.0203 134.52C40.8603 135.347 40.7803 136.08 40.7803 136.72C40.7803 137.307 40.8736 137.787 41.0603 138.16C41.247 138.533 41.527 138.72 41.9003 138.72C42.5936 138.72 43.367 138.08 44.2203 136.8C45.1003 135.52 45.807 133.8 46.3403 131.64C46.447 131.213 46.5403 130.76 46.6203 130.28C46.7003 129.8 46.7403 129.307 46.7403 128.8C46.7403 128.4 46.7136 128 46.6603 127.6C46.607 127.173 46.527 126.747 46.4203 126.32V126.04C46.847 125.32 47.3936 124.773 48.0603 124.4C48.7536 124.027 49.447 123.84 50.1403 123.84C51.0736 123.84 51.9136 124.16 52.6603 124.8C53.407 125.44 53.7803 126.373 53.7803 127.6C53.7803 128.32 53.647 129.16 53.3803 130.12C53.1136 131.053 52.8203 132.027 52.5003 133.04C52.1803 134.027 51.887 135 51.6203 135.96C51.3536 136.92 51.2203 137.773 51.2203 138.52C51.2203 139.613 51.607 140.16 52.3803 140.16C52.5936 140.16 52.847 140.107 53.1403 140C53.4603 139.867 53.7536 139.613 54.0203 139.24L54.3003 139.32C54.3003 140.28 54.0336 141.133 53.5003 141.88C52.9936 142.6 52.3403 143.16 51.5403 143.56C50.7403 143.96 49.9136 144.16 49.0603 144.16C47.967 144.16 46.9803 143.76 46.1003 142.96C45.247 142.16 44.8203 140.853 44.8203 139.04V138.96C43.727 140.827 42.5936 142.16 41.4203 142.96C40.247 143.76 39.1536 144.16 38.1403 144.16ZM61.0894 152C60.4227 152 59.7827 151.827 59.1694 151.48C58.5827 151.133 58.0894 150.573 57.6894 149.8C57.316 149.027 57.1294 147.987 57.1294 146.68C57.1294 145.427 57.2894 144.067 57.6094 142.6C57.956 141.133 58.3427 139.667 58.7694 138.2C59.196 136.707 59.5694 135.293 59.8894 133.96C60.236 132.627 60.4094 131.44 60.4094 130.4C60.4094 129.627 60.3027 129.107 60.0894 128.84C59.876 128.547 59.6227 128.4 59.3294 128.4C59.0627 128.4 58.796 128.48 58.5294 128.64C58.2627 128.8 58.036 128.987 57.8494 129.2L57.5694 129.04C57.5694 128.107 57.836 127.253 58.3694 126.48C58.9294 125.68 59.636 125.04 60.4894 124.56C61.3427 124.08 62.2227 123.84 63.1294 123.84C64.0094 123.84 64.716 124.067 65.2494 124.52C65.7827 124.947 66.1827 125.507 66.4494 126.2C66.7427 126.893 66.916 127.64 66.9694 128.44C67.9827 126.84 69.0894 125.653 70.2894 124.88C71.4894 124.107 72.6227 123.72 73.6894 123.72C75.1294 123.72 76.3427 124.4 77.3294 125.76C78.3427 127.12 78.8494 129.227 78.8494 132.08C78.8494 134.747 78.4227 136.987 77.5694 138.8C76.716 140.587 75.636 141.933 74.3294 142.84C73.0494 143.72 71.7427 144.16 70.4094 144.16C69.2627 144.16 68.196 143.827 67.2094 143.16C66.2494 142.467 65.5027 141.467 64.9694 140.16C64.7294 141.253 64.516 142.333 64.3294 143.4C64.1694 144.467 64.0894 145.507 64.0894 146.52C64.0894 147.08 64.116 147.627 64.1694 148.16C64.2494 148.693 64.3694 149.227 64.5294 149.76V150C64.1827 150.667 63.6894 151.16 63.0494 151.48C62.436 151.827 61.7827 152 61.0894 152ZM68.4494 140.28C69.0894 140.28 69.6494 140.027 70.1294 139.52C70.6094 139.013 71.0227 138.36 71.3694 137.56C71.716 136.733 71.9694 135.853 72.1294 134.92C72.316 133.987 72.4094 133.08 72.4094 132.2C72.4094 131.08 72.2627 130.133 71.9694 129.36C71.676 128.56 71.2227 128.16 70.6094 128.16C69.836 128.16 68.9694 128.947 68.0094 130.52C67.0494 132.067 66.3027 134.427 65.7694 137.6C66.0094 138.427 66.3694 139.08 66.8494 139.56C67.3294 140.04 67.8627 140.28 68.4494 140.28ZM90.5594 144.28C88.6127 144.28 86.9994 143.893 85.7194 143.12C84.4394 142.32 83.4794 141.28 82.8394 140C82.1994 138.693 81.8794 137.293 81.8794 135.8C81.8794 134.387 82.146 132.973 82.6794 131.56C83.2394 130.12 84.0394 128.813 85.0794 127.64C86.146 126.467 87.426 125.52 88.9194 124.8C90.4394 124.08 92.146 123.72 94.0394 123.72C96.386 123.72 98.0927 124.253 99.1594 125.32C100.253 126.36 100.799 127.627 100.799 129.12C100.799 130.4 100.453 131.587 99.7594 132.68C99.0927 133.747 98.1994 134.613 97.0794 135.28C95.9594 135.92 94.7327 136.24 93.3994 136.24C92.706 136.24 91.9994 136.133 91.2794 135.92C90.5594 135.707 89.8527 135.373 89.1594 134.92C89.2927 136.573 89.7727 137.773 90.5994 138.52C91.426 139.267 92.4127 139.64 93.5594 139.64C94.3594 139.64 95.1594 139.493 95.9594 139.2C96.7594 138.88 97.4927 138.48 98.1594 138C98.8527 137.493 99.386 136.96 99.7594 136.4L100.039 136.6C100.039 137.987 99.746 139.173 99.1594 140.16C98.5994 141.12 97.8527 141.907 96.9194 142.52C95.986 143.133 94.9594 143.587 93.8394 143.88C92.746 144.147 91.6527 144.28 90.5594 144.28ZM91.4794 133.48C92.3327 133.48 93.026 133.24 93.5594 132.76C94.0927 132.253 94.4927 131.667 94.7594 131C95.026 130.333 95.1594 129.747 95.1594 129.24C95.1594 128.627 94.986 128.12 94.6394 127.72C94.2927 127.293 93.8127 127.08 93.1994 127.08C92.7194 127.08 92.186 127.253 91.5994 127.6C91.0394 127.947 90.5327 128.547 90.0794 129.4C89.626 130.227 89.3327 131.387 89.1994 132.88C90.0527 133.28 90.8127 133.48 91.4794 133.48ZM108.299 144.16C107.339 144.16 106.485 143.773 105.739 143C104.992 142.2 104.619 141.08 104.619 139.64C104.619 138.947 104.699 138.16 104.859 137.28C105.019 136.4 105.205 135.507 105.419 134.6C105.632 133.667 105.819 132.8 105.979 132C106.139 131.173 106.219 130.493 106.219 129.96C106.219 129.4 106.112 128.96 105.899 128.64C105.712 128.293 105.459 128.12 105.139 128.12C104.632 128.12 104.112 128.467 103.579 129.16L103.339 129C103.312 128.573 103.405 128.067 103.619 127.48C103.832 126.893 104.165 126.333 104.619 125.8C105.072 125.24 105.645 124.773 106.339 124.4C107.059 124.027 107.899 123.84 108.859 123.84C110.272 123.84 111.299 124.253 111.939 125.08C112.579 125.88 112.899 126.853 112.899 128C112.899 128.187 112.885 128.387 112.859 128.6C112.859 128.787 112.845 128.973 112.819 129.16C113.779 127.427 114.779 126.107 115.819 125.2C116.885 124.267 117.872 123.8 118.779 123.8C119.632 123.8 120.259 124.133 120.659 124.8C121.059 125.467 121.259 126.267 121.259 127.2C121.259 128.053 121.085 128.92 120.739 129.8C120.419 130.68 119.925 131.413 119.259 132C118.619 132.56 117.832 132.827 116.899 132.8L116.739 132.72C116.712 132.027 116.485 131.48 116.059 131.08C115.632 130.68 115.152 130.48 114.619 130.48C113.899 130.48 113.219 130.84 112.579 131.56C111.965 132.28 111.659 133.32 111.659 134.68C111.659 135.507 111.752 136.4 111.939 137.36C112.125 138.32 112.219 139.133 112.219 139.8C112.219 140.6 112.032 141.333 111.659 142C111.285 142.667 110.805 143.2 110.219 143.6C109.632 143.973 108.992 144.16 108.299 144.16ZM127.684 144.16C126.724 144.16 125.857 143.773 125.084 143C124.337 142.2 123.964 141.107 123.964 139.72C123.964 139.027 124.057 138.24 124.244 137.36C124.431 136.453 124.631 135.533 124.844 134.6C125.084 133.667 125.297 132.787 125.484 131.96C125.671 131.133 125.764 130.44 125.764 129.88C125.764 129.427 125.657 129.067 125.444 128.8C125.231 128.507 124.951 128.36 124.604 128.36C124.151 128.36 123.657 128.627 123.124 129.16L122.884 129C122.857 128.573 122.951 128.067 123.164 127.48C123.377 126.893 123.724 126.333 124.204 125.8C124.684 125.24 125.311 124.773 126.084 124.4C126.857 124.027 127.777 123.84 128.844 123.84C130.044 123.84 130.937 124.267 131.524 125.12C132.137 125.947 132.444 126.947 132.444 128.12C132.444 128.253 132.444 128.4 132.444 128.56C132.444 128.693 132.431 128.827 132.404 128.96C132.911 128.133 133.497 127.333 134.164 126.56C134.857 125.787 135.631 125.147 136.484 124.64C137.364 124.107 138.311 123.84 139.324 123.84C140.631 123.84 141.537 124.267 142.044 125.12C142.551 125.947 142.804 126.893 142.804 127.96C142.804 128.173 142.791 128.387 142.764 128.6C142.764 128.787 142.751 128.973 142.724 129.16C143.284 128.333 143.897 127.52 144.564 126.72C145.257 125.893 146.044 125.213 146.924 124.68C147.804 124.12 148.817 123.84 149.964 123.84C151.377 123.84 152.337 124.253 152.844 125.08C153.377 125.907 153.644 126.88 153.644 128C153.644 128.987 153.524 130.12 153.284 131.4C153.044 132.653 152.804 133.893 152.564 135.12C152.324 136.347 152.204 137.387 152.204 138.24C152.204 138.747 152.271 139.16 152.404 139.48C152.564 139.8 152.817 139.96 153.164 139.96C153.457 139.96 153.724 139.88 153.964 139.72C154.231 139.533 154.417 139.32 154.524 139.08L154.844 139.2C154.844 140.187 154.564 141.053 154.004 141.8C153.444 142.547 152.737 143.133 151.884 143.56C151.031 143.96 150.177 144.16 149.324 144.16C148.284 144.16 147.364 143.813 146.564 143.12C145.791 142.427 145.404 141.28 145.404 139.68C145.404 138.693 145.524 137.627 145.764 136.48C146.031 135.333 146.284 134.227 146.524 133.16C146.791 132.067 146.924 131.173 146.924 130.48C146.924 129.493 146.577 129 145.884 129C145.377 129 144.871 129.213 144.364 129.64C143.884 130.04 143.444 130.587 143.044 131.28C142.671 131.947 142.364 132.653 142.124 133.4C141.884 134.147 141.764 134.867 141.764 135.56C141.764 136.2 141.831 136.907 141.964 137.68C142.124 138.427 142.204 139.147 142.204 139.84C142.204 141.227 141.817 142.293 141.044 143.04C140.271 143.787 139.364 144.16 138.324 144.16C137.364 144.16 136.497 143.84 135.724 143.2C134.977 142.56 134.604 141.6 134.604 140.32C134.604 139.733 134.684 139.027 134.844 138.2C135.004 137.347 135.177 136.467 135.364 135.56C135.577 134.627 135.764 133.733 135.924 132.88C136.084 132.027 136.164 131.28 136.164 130.64C136.164 130.133 136.084 129.733 135.924 129.44C135.791 129.147 135.511 129 135.084 129C134.471 129 133.884 129.307 133.324 129.92C132.764 130.533 132.284 131.28 131.884 132.16C131.484 133.013 131.217 133.84 131.084 134.64C131.057 134.827 131.031 134.973 131.004 135.08C131.004 135.187 131.004 135.24 131.004 135.24C131.004 136.067 131.097 136.827 131.284 137.52C131.471 138.187 131.564 138.88 131.564 139.6C131.564 140.907 131.164 142 130.364 142.88C129.591 143.733 128.697 144.16 127.684 144.16ZM172.201 144.2C171.267 144.2 170.454 143.893 169.761 143.28C169.067 142.667 168.721 141.667 168.721 140.28C168.721 140.147 168.721 140.013 168.721 139.88C168.721 139.747 168.734 139.613 168.761 139.48C167.961 141.08 167.054 142.267 166.041 143.04C165.054 143.787 164.054 144.16 163.041 144.16C162.107 144.16 161.227 143.84 160.401 143.2C159.574 142.533 158.907 141.56 158.401 140.28C157.894 139 157.641 137.453 157.641 135.64C157.641 133.773 157.894 132.107 158.401 130.64C158.934 129.173 159.627 127.933 160.481 126.92C161.334 125.907 162.267 125.147 163.281 124.64C164.294 124.107 165.281 123.84 166.241 123.84C167.307 123.84 168.267 124.173 169.121 124.84C169.974 125.48 170.561 126.507 170.881 127.92C170.961 127.467 171.014 127.053 171.041 126.68C171.094 126.307 171.121 126.053 171.121 125.92C171.147 125.2 171.507 124.667 172.201 124.32C172.921 123.973 173.707 123.8 174.561 123.8C175.307 123.8 176.014 123.947 176.681 124.24C177.347 124.533 177.801 125.027 178.041 125.72L178.121 125.96C177.801 126.68 177.481 127.547 177.161 128.56C176.841 129.573 176.547 130.64 176.281 131.76C176.014 132.853 175.801 133.933 175.641 135C175.481 136.04 175.401 136.96 175.401 137.76C175.401 138.64 175.494 139.253 175.681 139.6C175.867 139.92 176.094 140.08 176.361 140.08C176.814 140.08 177.227 139.76 177.601 139.12L177.921 139.28C177.921 140.187 177.627 141.013 177.041 141.76C176.454 142.507 175.721 143.107 174.841 143.56C173.961 143.987 173.081 144.2 172.201 144.2ZM165.681 139.12C166.374 139.12 167.134 138.507 167.961 137.28C168.814 136.027 169.547 134.24 170.161 131.92C170.214 131.68 170.267 131.453 170.321 131.24C170.374 131 170.414 130.773 170.441 130.56C170.014 129.573 169.561 128.88 169.081 128.48C168.627 128.053 168.174 127.84 167.721 127.84C167.054 127.84 166.427 128.2 165.841 128.92C165.281 129.613 164.814 130.493 164.441 131.56C164.094 132.627 163.921 133.693 163.921 134.76C163.921 136.227 164.081 137.32 164.401 138.04C164.747 138.76 165.174 139.12 165.681 139.12ZM185.699 144.16C184.739 144.16 183.885 143.773 183.139 143C182.392 142.2 182.019 141.08 182.019 139.64C182.019 138.947 182.099 138.16 182.259 137.28C182.419 136.4 182.605 135.507 182.819 134.6C183.032 133.667 183.219 132.8 183.379 132C183.539 131.173 183.619 130.493 183.619 129.96C183.619 129.4 183.512 128.96 183.299 128.64C183.112 128.293 182.859 128.12 182.539 128.12C182.032 128.12 181.512 128.467 180.979 129.16L180.739 129C180.712 128.573 180.805 128.067 181.019 127.48C181.232 126.893 181.565 126.333 182.019 125.8C182.472 125.24 183.045 124.773 183.739 124.4C184.459 124.027 185.299 123.84 186.259 123.84C187.672 123.84 188.699 124.253 189.339 125.08C189.979 125.88 190.299 126.853 190.299 128C190.299 128.187 190.285 128.387 190.259 128.6C190.259 128.787 190.245 128.973 190.219 129.16C191.179 127.427 192.179 126.107 193.219 125.2C194.285 124.267 195.272 123.8 196.179 123.8C197.032 123.8 197.659 124.133 198.059 124.8C198.459 125.467 198.659 126.267 198.659 127.2C198.659 128.053 198.485 128.92 198.139 129.8C197.819 130.68 197.325 131.413 196.659 132C196.019 132.56 195.232 132.827 194.299 132.8L194.139 132.72C194.112 132.027 193.885 131.48 193.459 131.08C193.032 130.68 192.552 130.48 192.019 130.48C191.299 130.48 190.619 130.84 189.979 131.56C189.365 132.28 189.059 133.32 189.059 134.68C189.059 135.507 189.152 136.4 189.339 137.36C189.525 138.32 189.619 139.133 189.619 139.8C189.619 140.6 189.432 141.333 189.059 142C188.685 142.667 188.205 143.2 187.619 143.6C187.032 143.973 186.392 144.16 185.699 144.16ZM215.017 144.2C214.137 144.2 213.311 144 212.537 143.6C211.764 143.173 211.137 142.56 210.657 141.76C210.177 140.96 209.937 140 209.937 138.88C209.937 137.733 210.217 136.44 210.777 135C211.204 134.787 211.711 134.453 212.297 134C212.884 133.547 213.404 133.04 213.857 132.48C214.311 131.893 214.537 131.32 214.537 130.76C214.537 130.253 214.337 129.853 213.937 129.56C213.564 129.267 213.097 129.12 212.537 129.12C211.844 129.12 211.191 129.333 210.577 129.76C209.964 130.187 209.417 130.747 208.937 131.44C208.484 132.107 208.124 132.84 207.857 133.64C207.617 134.413 207.497 135.16 207.497 135.88C207.497 136.573 207.577 137.227 207.737 137.84C207.924 138.427 208.017 139.107 208.017 139.88C208.017 141.08 207.697 142.093 207.057 142.92C206.417 143.747 205.471 144.16 204.217 144.16C203.071 144.16 202.151 143.773 201.457 143C200.764 142.227 200.417 141.173 200.417 139.84C200.417 139.147 200.497 138.227 200.657 137.08C200.844 135.933 201.071 134.667 201.337 133.28C201.604 131.893 201.857 130.467 202.097 129C202.364 127.507 202.577 126.08 202.737 124.72C202.924 123.333 203.017 122.093 203.017 121C203.017 120.413 202.977 119.88 202.897 119.4C202.844 118.893 202.711 118.493 202.497 118.2V117.96C203.084 117.293 203.724 116.8 204.417 116.48C205.111 116.16 205.791 116 206.457 116C207.471 116 208.337 116.36 209.057 117.08C209.777 117.8 210.137 118.867 210.137 120.28C210.137 121.027 210.031 121.933 209.817 123C209.631 124.067 209.391 125.187 209.097 126.36C208.831 127.533 208.551 128.653 208.257 129.72C208.844 128.867 209.511 127.987 210.257 127.08C211.004 126.173 211.844 125.413 212.777 124.8C213.711 124.16 214.764 123.84 215.937 123.84C217.297 123.84 218.364 124.28 219.137 125.16C219.911 126.013 220.297 127.04 220.297 128.24C220.297 129.44 219.857 130.72 218.977 132.08C218.124 133.44 216.684 134.587 214.657 135.52C215.004 136.293 215.484 136.987 216.097 137.6C216.711 138.213 217.377 138.693 218.097 139.04C218.844 139.36 219.537 139.52 220.177 139.52C220.497 139.52 220.777 139.467 221.017 139.36L221.257 139.6C220.591 141.147 219.671 142.307 218.497 143.08C217.351 143.827 216.191 144.2 215.017 144.2ZM231.844 144.28C229.897 144.28 228.284 143.893 227.004 143.12C225.724 142.32 224.764 141.28 224.124 140C223.484 138.693 223.164 137.293 223.164 135.8C223.164 134.387 223.43 132.973 223.964 131.56C224.524 130.12 225.324 128.813 226.364 127.64C227.43 126.467 228.71 125.52 230.204 124.8C231.724 124.08 233.43 123.72 235.324 123.72C237.67 123.72 239.377 124.253 240.444 125.32C241.537 126.36 242.084 127.627 242.084 129.12C242.084 130.4 241.737 131.587 241.044 132.68C240.377 133.747 239.484 134.613 238.364 135.28C237.244 135.92 236.017 136.24 234.684 136.24C233.99 136.24 233.284 136.133 232.564 135.92C231.844 135.707 231.137 135.373 230.444 134.92C230.577 136.573 231.057 137.773 231.884 138.52C232.71 139.267 233.697 139.64 234.844 139.64C235.644 139.64 236.444 139.493 237.244 139.2C238.044 138.88 238.777 138.48 239.444 138C240.137 137.493 240.67 136.96 241.044 136.4L241.324 136.6C241.324 137.987 241.03 139.173 240.444 140.16C239.884 141.12 239.137 141.907 238.204 142.52C237.27 143.133 236.244 143.587 235.124 143.88C234.03 144.147 232.937 144.28 231.844 144.28ZM232.764 133.48C233.617 133.48 234.31 133.24 234.844 132.76C235.377 132.253 235.777 131.667 236.044 131C236.31 130.333 236.444 129.747 236.444 129.24C236.444 128.627 236.27 128.12 235.924 127.72C235.577 127.293 235.097 127.08 234.484 127.08C234.004 127.08 233.47 127.253 232.884 127.6C232.324 127.947 231.817 128.547 231.364 129.4C230.91 130.227 230.617 131.387 230.484 132.88C231.337 133.28 232.097 133.48 232.764 133.48ZM250.778 144.16C249.925 144.16 249.112 143.973 248.338 143.6C247.592 143.2 246.978 142.587 246.498 141.76C246.045 140.933 245.818 139.88 245.818 138.6C245.818 137.907 245.885 137 246.018 135.88C246.152 134.76 246.325 133.533 246.538 132.2C246.778 130.867 247.018 129.533 247.258 128.2C246.725 128.227 246.205 128.28 245.698 128.36C245.218 128.44 244.738 128.533 244.258 128.64L244.178 128.36C244.712 127.72 245.272 127.173 245.858 126.72C246.445 126.267 247.058 125.893 247.698 125.6C248.045 123.84 248.338 122.32 248.578 121.04C248.818 119.733 248.938 118.96 248.938 118.72C248.938 118.267 249.285 117.893 249.978 117.6C250.698 117.307 251.498 117.16 252.378 117.16C253.152 117.16 253.872 117.307 254.538 117.6C255.232 117.893 255.698 118.387 255.938 119.08C255.778 119.24 255.552 119.84 255.258 120.88C254.965 121.893 254.658 123.133 254.338 124.6C254.845 124.627 255.365 124.653 255.898 124.68C256.432 124.707 256.978 124.747 257.538 124.8C257.592 124.96 257.632 125.133 257.658 125.32C257.685 125.507 257.698 125.707 257.698 125.92C257.698 126.32 257.632 126.76 257.498 127.24C257.392 127.693 257.258 128.107 257.098 128.48C256.458 128.427 255.858 128.373 255.298 128.32C254.738 128.24 254.192 128.187 253.658 128.16C253.445 129.307 253.245 130.453 253.058 131.6C252.898 132.747 252.765 133.787 252.658 134.72C252.578 135.653 252.538 136.387 252.538 136.92C252.538 138.04 252.738 138.787 253.138 139.16C253.565 139.533 254.072 139.72 254.658 139.72C255.192 139.72 255.672 139.613 256.098 139.4C256.525 139.187 256.832 138.933 257.018 138.64L257.418 138.76C257.258 139.853 256.832 140.813 256.138 141.64C255.445 142.44 254.618 143.067 253.658 143.52C252.698 143.947 251.738 144.16 250.778 144.16Z" fill="#21B813"/>
</g>
<defs>
<clipPath id="clip0_117_9">
<rect width="274" height="151" fill="white"/>
</clipPath>
</defs>
</svg>
